<?xml version="1.0" standalone="no"?>
<svg xmlns:xlink="http://www.w3.org/1999/xlink" id="wave" style="transform:rotate(180deg); transition: 0.3s" viewBox="0 0 1440 100" version="1.1" xmlns="http://www.w3.org/2000/svg"><defs><linearGradient id="sw-gradient-0" x1="0" x2="0" y1="1" y2="0"><stop stop-color="rgba(255, 249, 234, 1)" offset="0%"/><stop stop-color="rgba(255, 249, 234, 1)" offset="100%"/></linearGradient></defs><path style="transform:translate(0, 0px); opacity:1" fill="url(#sw-gradient-0)" d="M0,20L48,28.3C96,37,192,53,288,56.7C384,60,480,50,576,51.7C672,53,768,67,864,71.7C960,77,1056,73,1152,60C1248,47,1344,23,1440,11.7C1536,0,1632,0,1728,10C1824,20,1920,40,2016,45C2112,50,2208,40,2304,31.7C2400,23,2496,17,2592,11.7C2688,7,2784,3,2880,1.7C2976,0,3072,0,3168,13.3C3264,27,3360,53,3456,55C3552,57,3648,33,3744,28.3C3840,23,3936,37,4032,50C4128,63,4224,77,4320,78.3C4416,80,4512,70,4608,55C4704,40,4800,20,4896,15C4992,10,5088,20,5184,30C5280,40,5376,50,5472,58.3C5568,67,5664,73,5760,70C5856,67,5952,53,6048,45C6144,37,6240,33,6336,26.7C6432,20,6528,10,6624,8.3C6720,7,6816,13,6864,16.7L6912,20L6912,100L6864,100C6816,100,6720,100,6624,100C6528,100,6432,100,6336,100C6240,100,6144,100,6048,100C5952,100,5856,100,5760,100C5664,100,5568,100,5472,100C5376,100,5280,100,5184,100C5088,100,4992,100,4896,100C4800,100,4704,100,4608,100C4512,100,4416,100,4320,100C4224,100,4128,100,4032,100C3936,100,3840,100,3744,100C3648,100,3552,100,3456,100C3360,100,3264,100,3168,100C3072,100,2976,100,2880,100C2784,100,2688,100,2592,100C2496,100,2400,100,2304,100C2208,100,2112,100,2016,100C1920,100,1824,100,1728,100C1632,100,1536,100,1440,100C1344,100,1248,100,1152,100C1056,100,960,100,864,100C768,100,672,100,576,100C480,100,384,100,288,100C192,100,96,100,48,100L0,100Z"/></svg>